<?xml version="1.0" encoding="iso-8859-1"?>
<!-- Generator: Adobe Illustrator 19.0.0, SVG Export Plug-In . SVG Version: 6.00 Build 0)  -->
<svg version="1.1" id="Capa_1" xmlns="http://www.w3.org/2000/svg" xmlns:xlink="http://www.w3.org/1999/xlink" x="0px" y="0px"
	 viewBox="0 0 512 512" style="enable-background:new 0 0 512 512;" xml:space="preserve">
<path style="fill:#AD7B64;" d="M339.789,102.153c-3.007,17.418-11.169,33.064-22.873,45.31c-15.654,0-110.385,0-126.092,0
	c-11.318-11.843-19.319-26.868-22.554-43.596L54.046,153.541L256,245.733l201.954-92.192L339.789,102.153z"/>
<g>
	<path style="fill:#966653;" d="M173.02,119.894c-2.069-5.121-3.678-10.477-4.751-16.027L54.046,153.541l20.298,9.266
		L173.02,119.894z"/>
	<path style="fill:#966653;" d="M256,242.642L54.046,153.541v263.132c0,3.784,2.234,7.211,5.696,8.738L256,512l196.258-86.588
		c3.462-1.527,5.696-4.955,5.696-8.738V153.541L256,242.642z"/>
</g>
<path style="fill:#875848;" d="M74.651,429.052v-266.42l-20.605-9.091v263.132c0,3.784,2.234,7.211,5.696,8.738l15.369,6.781
	C74.81,431.189,74.651,430.133,74.651,429.052z"/>
<path style="fill:#E4EAF8;" d="M216.527,455.529l-125.14-55.211c-2.312-1.02-3.804-3.309-3.804-5.836V221.897
	c0-1.484,1.526-2.479,2.884-1.88l126.438,55.784c3.377,1.49,5.557,4.833,5.557,8.525v167.335
	C222.462,454.716,219.322,456.762,216.527,455.529z"/>
<path style="fill:#D8DCE5;" d="M108.189,227.835l-17.831-7.867c-1.306-0.576-2.774,0.38-2.774,1.808v172.706
	c0,2.527,1.492,4.816,3.804,5.836l16.801,7.412V227.835z"/>
<path style="fill:#00C3FF;" d="M87.584,265.613l134.879,59.508v-44.326c0-2.172-1.282-4.139-3.27-5.016L90.357,218.938
	c-1.306-0.576-2.774,0.38-2.774,1.808L87.584,265.613L87.584,265.613z"/>
<path style="fill:#06B0F2;" d="M108.189,226.805l-18.215-8.036c-1.126-0.497-2.39,0.328-2.39,1.558v45.287l20.605,9.091
	C108.189,274.705,108.189,226.805,108.189,226.805z"/>
<g>
	<path style="fill:#C3C8D1;" d="M188.87,367.509l-74.579-32.903c-3.904-1.723-5.673-6.284-3.95-10.189
		c1.722-3.904,6.284-5.67,10.188-3.951l74.579,32.903c3.904,1.723,5.673,6.284,3.95,10.189
		C197.342,367.45,192.791,369.235,188.87,367.509z"/>
	<path style="fill:#C3C8D1;" d="M188.87,402.285l-74.579-32.904c-3.904-1.722-5.673-6.283-3.95-10.188
		c1.723-3.904,6.286-5.67,10.188-3.951l74.579,32.905c3.904,1.722,5.673,6.283,3.95,10.188
		C197.336,402.237,192.777,404.009,188.87,402.285z"/>
</g>
<path style="fill:#F9B938;" d="M189.777,149.911h128.185c21.911-22.926,29.172-54.703,21.79-83.398
	C329.91,28.263,295.191,0,253.87,0h-0.001C176.046,0,136.009,93.652,189.777,149.911z"/>
<path style="fill:#E59F23;" d="M264.147,0.606C260.773,0.217,257.347,0,253.87,0h-0.001c-77.823,0-117.86,93.652-64.092,149.911
	h20.555C159.787,97.025,191.705,8.971,264.147,0.606z"/>
<path style="fill:#FCD592;" d="M253.87,27.437L253.87,27.437L253.87,27.437c-35.819,0-64.49,30.763-60.932,67.359l0,0
	c1.495,15.061,8.456,28.506,18.859,38.351l0,0c1.088,0.906,5.741,5.7,14.148,10.021c15.641,8.031,34.045,8.934,50.425,2.457
	c10.987-4.353,18.747-11.448,19.571-12.478l0,0c10.404-9.846,17.364-23.29,18.859-38.351l0,0
	C318.439,59.008,290.314,27.437,253.87,27.437z"/>
<path style="fill:#FFC850;" d="M232.402,133.147L232.402,133.147c-10.404-9.846-17.364-23.29-18.859-38.351l0,0
	c-3.208-32.993,19.787-61.266,50.629-66.492c-3.35-0.568-6.791-0.867-10.302-0.867h-0.001c-35.905,0-64.481,30.85-60.931,67.359l0,0
	c1.495,15.061,8.456,28.506,18.86,38.351l0,0c1.086,0.905,5.741,5.7,14.148,10.021c12.001,6.163,25.91,8.08,38.226,5.861
	C249.254,146.341,241.822,140.996,232.402,133.147z"/>
<path style="fill:#E4EAF8;" d="M251.43,119.845c-12.04-0.299-21.096-6.767-21.096-12.339c0-2.787,2.488-6.966,5.573-6.966
	c3.781,0,6.767,6.468,15.523,7.463V88.201c-9.055-3.384-19.305-7.264-19.305-20.001c0-12.638,9.354-18.111,19.305-19.405v-2.786
	c0-1.294,1.493-2.488,3.384-2.488c1.692,0,3.384,1.194,3.384,2.488v2.587c6.468,0.199,17.016,2.09,17.016,7.862
	c0,2.289-1.592,6.866-5.274,6.866c-2.786,0-5.075-3.184-11.742-3.681v17.513c8.856,3.284,18.807,7.762,18.807,21.295
	c0,12.24-7.662,19.305-18.807,21.096v3.085c0,1.294-1.692,2.488-3.384,2.488c-1.89,0-3.384-1.194-3.384-2.488L251.43,119.845
	L251.43,119.845z M252.226,74.965V59.94c-4.976,0.796-7.961,3.184-7.961,6.965C244.266,71.284,247.649,73.175,252.226,74.965z
	 M257.401,90.589v17.314c4.379-0.895,7.463-3.482,7.463-8.159C264.864,94.868,261.68,92.48,257.401,90.589z"/>
<path style="fill:#966653;" d="M337.458,155.191H170.317c-4.267,0-7.727-3.459-7.727-7.727s3.459-7.727,7.727-7.727h167.141
	c4.267,0,7.727,3.459,7.727,7.727C345.184,151.732,341.725,155.191,337.458,155.191z"/>
<polygon style="fill:#875848;" points="276.605,502.909 276.605,233.552 256,242.642 256,512 "/>
<g>
</g>
<g>
</g>
<g>
</g>
<g>
</g>
<g>
</g>
<g>
</g>
<g>
</g>
<g>
</g>
<g>
</g>
<g>
</g>
<g>
</g>
<g>
</g>
<g>
</g>
<g>
</g>
<g>
</g>
</svg>
