<?xml version="1.0" encoding="iso-8859-1"?>
<!-- Generator: Adobe Illustrator 19.0.0, SVG Export Plug-In . SVG Version: 6.00 Build 0)  -->
<svg xmlns="http://www.w3.org/2000/svg" xmlns:xlink="http://www.w3.org/1999/xlink" version="1.1" id="Layer_1" x="0px" y="0px" viewBox="0 0 512 512" style="enable-background:new 0 0 512 512;" xml:space="preserve" width="512" height="512">
<g>
	<g>
		<g>
			<g>
				<path style="fill:#A4D852;" d="M486.542,507.238H80.169c-14.06,0-25.458-11.398-25.458-25.458V318.74      c0-14.06,11.398-25.458,25.458-25.458h406.373c14.06,0,25.458,11.398,25.458,25.458v163.04      C512,495.841,500.602,507.238,486.542,507.238z"/>
			</g>
			<path style="fill:#97C63E;" d="M486.542,293.283h-27.339v213.956h27.339c14.06,0,25.458-11.398,25.458-25.458V318.74     C512,304.681,500.602,293.283,486.542,293.283z"/>
			<g>
				<g>
					<circle style="fill:#FF9C43;" cx="283.356" cy="264.924" r="82.455"/>
				</g>
				<path style="fill:#EF8229;" d="M325.813,194.24c-21.407-12.859-46.301-14.843-68.293-7.596      c5.673,1.882,11.233,4.39,16.571,7.596c39.038,23.449,51.675,74.104,28.227,113.142c-10.59,17.63-26.736,29.854-44.848,35.822      c35.816,11.879,76.328-2.123,96.57-35.822C377.488,268.343,364.851,217.688,325.813,194.24z"/>
				<path style="fill:#FAE0C1;" d="M214.031,208.72c-13.426-8.065-28.675-17.222-37.083-22.269      c-4.113-2.469-7.076-6.469-8.251-11.181l-0.061-0.243c-1.94-7.775,3.317-18.759,10.329-22.638l68.019-16.974l26.873,19.914      l11.381,27.162c13.863,0.296,27.837,4.096,40.576,11.749c5.66,3.4,10.746,7.386,15.266,11.811      c-3.433-22.149-8.271-52.985-9.915-66.043c-1.161-9.22-6.054-17.559-13.534-23.072l-68.475-50.467      c-9.871-7.275-21.739-11.334-33.998-11.638c-27.456-0.683-77.644-2.581-98.077-7.553L73.905,22.499L12.368,124.947l12.492,6.347      c5.355,3.217,9.81,7.735,12.95,13.135l27.919,43.625c8.865,13.681,21.477,24.525,36.331,31.24l36.501,16.5l88.046,52.886      c10.147,6.095,20.721,7.124,26.816-3.022C266.122,268.894,241.722,225.353,214.031,208.72z"/>
				<g>
					<g>
						<g>
							<g>
								<g>
									<path style="fill:#EDEDED;" d="M228.106,285.348c7.019-11.685,3.236-26.848-8.449-33.867l-13.294-7.985           c-6.016-3.613-13.821-1.666-17.434,4.35l-8.035,13.377l45.344,27.236L228.106,285.348z"/>
								</g>
							</g>
						</g>
					</g>
				</g>
				<path style="fill:#F43B45;" d="M1.082,129.94L74.065,8.437c2.156-3.589,6.815-4.748,10.401-2.587l27.611,16.636      c3.579,2.157,4.735,6.805,2.584,10.387L41.678,154.376c-2.156,3.589-6.815,4.748-10.401,2.587L3.666,140.327      C0.087,138.17-1.069,133.522,1.082,129.94z"/>
			</g>
		</g>
		<g>
			<path style="fill:#FFE471;" d="M281.034,310.324c-15.069-0.374-26.402-8.469-26.402-15.443c0-3.487,3.113-8.718,6.975-8.718     c4.732,0,8.469,8.095,19.428,9.341V270.72c-11.333-4.234-24.161-9.092-24.161-25.033c0-15.816,11.707-22.667,24.161-24.286     v-3.487c0-1.619,1.868-3.114,4.235-3.114c2.117,0,4.234,1.495,4.234,3.114v3.238c8.095,0.249,21.296,2.616,21.296,9.839     c0,2.865-1.992,8.593-6.601,8.593c-3.487,0-6.352-3.985-14.695-4.608v21.919c11.084,4.11,23.538,9.714,23.538,26.652     c0,15.318-9.59,24.161-23.538,26.403v3.861c0,1.619-2.117,3.113-4.234,3.113c-2.367,0-4.235-1.494-4.235-3.113V310.324z      M282.031,254.156V235.35c-6.228,0.997-9.964,3.985-9.964,8.718C272.067,249.547,276.302,251.914,282.031,254.156z      M288.507,273.709v21.67c5.48-1.121,9.341-4.359,9.341-10.212C297.848,279.064,293.862,276.075,288.507,273.709z"/>
		</g>
	</g>
	<path style="fill:#454851;" d="M384.447,375.845H183.698c-3.222,0-5.834-2.612-5.834-5.834v-16.786   c0-3.222,2.612-5.834,5.834-5.834h200.749c3.222,0,5.834,2.612,5.834,5.834v16.786   C390.281,373.233,387.669,375.845,384.447,375.845z"/>
</g>















</svg>
